<svg xmlns="http://www.w3.org/2000/svg" version="1.1" style="shape-rendering:geometricPrecision; text-rendering:geometricPrecision; image-rendering:optimizeQuality; fill-rule:evenodd; clip-rule:evenodd" xmlns:xlink="http://www.w3.org/1999/xlink" viewBox="104.58 180.5 744.32 637.25">
<g><path style="opacity:0.988" fill="#000000" d="M 619.5,180.5 C 624.519,180.752 629.519,181.252 634.5,182C 635.849,182.772 636.682,183.939 637,185.5C 637.72,191.965 637.053,198.298 635,204.5C 625.608,232.951 612.275,259.284 595,283.5C 572.209,316.625 544.375,344.791 511.5,368C 500.431,375.396 489.098,382.396 477.5,389C 434.442,410.529 391.109,431.529 347.5,452C 333.566,460.272 319.899,468.938 306.5,478C 310.783,480.615 314.783,483.615 318.5,487C 330.148,479.651 341.815,471.984 353.5,464C 363.5,458 373.5,452 383.5,446C 425.01,424.411 466.677,403.078 508.5,382C 552.245,354.932 589.745,320.765 621,279.5C 639.86,253.116 654.527,224.449 665,193.5C 665.368,192.09 666.201,191.09 667.5,190.5C 670.251,192.293 673.084,193.959 676,195.5C 678.134,211.231 675.801,226.231 669,240.5C 664.953,248.76 660.787,256.927 656.5,265C 674.282,322.344 692.449,379.511 711,436.5C 744.951,416.882 771.951,390.216 792,356.5C 794.647,352.686 797.813,349.353 801.5,346.5C 804.017,348.51 805.517,351.177 806,354.5C 806.76,358.819 807.427,363.152 808,367.5C 808.263,382.853 808.93,398.186 810,413.5C 827.056,361.883 831.723,309.216 824,255.5C 820.443,238.879 812.61,224.712 800.5,213C 774.728,198.644 751.894,202.478 732,224.5C 719.94,239.692 718.606,255.692 728,272.5C 735.672,281.054 745.172,283.887 756.5,281C 768.5,278.65 777.333,272.15 783,261.5C 785.966,252.119 782.466,247.119 772.5,246.5C 763.403,247.583 756.737,252.249 752.5,260.5C 749.683,258.368 748.016,255.535 747.5,252C 754.706,227.098 769.706,221.098 792.5,234C 804.903,245.935 806.736,259.435 798,274.5C 782.509,295.821 761.676,304.321 735.5,300C 716.223,293.315 705.056,279.815 702,259.5C 702.008,222.142 719.842,197.642 755.5,186C 792.582,179.124 819.415,192.624 836,226.5C 842.667,242.169 846.667,258.502 848,275.5C 852.446,342.167 840.113,405.501 811,465.5C 811.064,491.167 811.564,516.833 812.5,542.5C 812.58,555.144 811.58,567.644 809.5,580C 811.068,582.304 812.235,584.804 813,587.5C 815.856,611.289 808.023,630.789 789.5,646C 764.716,659.023 752.549,651.523 753,623.5C 757.189,602.66 768.355,586.827 786.5,576C 791.295,573.967 796.295,573.134 801.5,573.5C 801,545.491 800.166,517.491 799,489.5C 775.31,537.858 740.977,576.858 696,606.5C 695.333,618.167 695.333,629.833 696,641.5C 698.816,644.603 700.483,648.27 701,652.5C 703.589,682.827 691.089,704.327 663.5,717C 646.978,718.484 638.644,710.818 638.5,694C 639.634,680.929 644.467,669.429 653,659.5C 659.947,651.221 668.114,644.387 677.5,639C 680.117,638.178 682.784,637.678 685.5,637.5C 685.067,629.5 684.567,621.5 684,613.5C 668.966,623.101 653.133,631.268 636.5,638C 635.726,640.405 635.226,642.905 635,645.5C 634.311,646.357 633.478,647.023 632.5,647.5C 630.102,646.102 628.435,644.102 627.5,641.5C 604.873,650.657 581.54,657.323 557.5,661.5C 553.924,685.214 549.257,708.714 543.5,732C 550.647,741.03 552.814,751.197 550,762.5C 539.786,791.734 519.286,806.567 488.5,807C 472.391,801.635 465.891,790.468 469,773.5C 475.443,751.391 489.276,735.891 510.5,727C 515.317,726.074 520.151,725.24 525,724.5C 527.763,724.918 530.43,725.584 533,726.5C 537.156,706.564 540.989,686.564 544.5,666.5C 544.167,665.833 543.833,665.167 543.5,664.5C 529.968,667.4 516.301,669.567 502.5,671C 470.876,674.153 439.209,676.819 407.5,679C 371.937,681.312 337.604,688.978 304.5,702C 294.183,706.488 284.516,711.988 275.5,718.5C 275.747,742.023 271.58,764.689 263,786.5C 250.06,810.554 229.894,820.721 202.5,817C 177.24,810.408 160.74,794.575 153,769.5C 148.609,746.624 156.776,730.124 177.5,720C 203.604,712.315 216.437,722.148 216,749.5C 209.994,770.584 196.827,776.751 176.5,768C 170.121,762.964 166.287,756.464 165,748.5C 162.307,767.639 168.474,783.472 183.5,796C 201.74,808.895 220.407,809.562 239.5,798C 247.039,791.762 252.206,783.929 255,774.5C 259.85,760.214 262.183,745.547 262,730.5C 252.354,741.793 243.687,753.793 236,766.5C 234.281,768.557 232.281,770.224 230,771.5C 228.268,771.266 227.434,770.266 227.5,768.5C 233.47,744.553 245.137,723.887 262.5,706.5C 261.5,695.504 260.333,684.504 259,673.5C 226.349,677.804 194.515,674.304 163.5,663C 138.453,652.286 121.286,634.119 112,608.5C 100.18,574.529 102.513,541.529 119,509.5C 127.112,494.723 136.779,481.057 148,468.5C 167.433,449.57 186.266,430.237 204.5,410.5C 195.327,365.623 189.994,320.289 188.5,274.5C 187.928,258.294 189.428,242.294 193,226.5C 201.954,200.276 218.454,194.109 242.5,208C 256.831,218.137 266.664,231.637 272,248.5C 280.47,283 277.804,316.666 264,349.5C 251.652,376.809 236.485,402.309 218.5,426C 221.274,440.471 224.107,454.971 227,469.5C 236.41,465.626 246.243,463.959 256.5,464.5C 268.558,464.232 280.225,466.232 291.5,470.5C 308.204,456.967 325.871,444.801 344.5,434C 375.099,417.867 406.099,402.534 437.5,388C 468.033,373.247 496.366,355.247 522.5,334C 562.887,297.609 593.054,254.109 613,203.5C 615.072,195.786 617.239,188.119 619.5,180.5 Z M 221.5,233.5 C 229.219,233.779 235.385,237.112 240,243.5C 257.736,269.217 261.403,296.884 251,326.5C 242.057,352.056 229.724,375.723 214,397.5C 206.244,358.188 202.578,318.521 203,278.5C 204.991,264.869 208.991,251.869 215,239.5C 217.063,237.266 219.229,235.266 221.5,233.5 Z M 681.5,518.5 C 661.238,450.532 641.238,382.366 621.5,314C 623.219,310.599 625.386,307.432 628,304.5C 641.464,351.226 655.131,397.892 669,444.5C 671.401,445.602 673.901,445.769 676.5,445C 682.61,440.524 688.443,435.691 694,430.5C 694.667,427.5 694.667,424.5 694,421.5C 679.224,373.173 664.057,325.006 648.5,277C 649.211,275.745 650.044,274.579 651,273.5C 668.401,328.536 685.901,383.536 703.5,438.5C 697.392,441.393 691.726,445.06 686.5,449.5C 681.293,459.536 679.293,470.203 680.5,481.5C 680.992,493.831 681.325,506.164 681.5,518.5 Z M 598.5,335.5 C 599.586,335.62 600.253,336.287 600.5,337.5C 611.985,382.61 624.318,427.444 637.5,472C 638.833,472.667 640.167,472.667 641.5,472C 646.333,467.833 651.167,463.667 656,459.5C 664.333,487.833 672.667,516.167 681,544.5C 683.372,559.741 684.039,575.074 683,590.5C 678.083,593.375 673.249,596.375 668.5,599.5C 667.914,599.291 667.414,598.957 667,598.5C 643.178,513.544 619.511,428.544 596,343.5C 595.5,342.333 594.667,341.5 593.5,341C 595.373,339.296 597.04,337.463 598.5,335.5 Z M 588.5,345.5 C 612.556,431.187 636.556,517.021 660.5,603C 653.469,608.185 645.803,612.351 637.5,615.5C 638.103,603.47 634.269,593.136 626,584.5C 606.832,511.162 587.665,437.828 568.5,364.5C 568.529,362.971 569.196,361.804 570.5,361C 576.987,356.342 582.987,351.176 588.5,345.5 Z M 560.5,368.5 C 561.649,368.791 562.316,369.624 562.5,371C 580.694,439.202 598.027,507.369 614.5,575.5C 607.54,572.569 600.54,569.736 593.5,567C 589.89,565.056 586.557,562.723 583.5,560C 577.618,552.392 572.118,544.558 567,536.5C 553.359,487.914 539.526,439.414 525.5,391C 528.667,389.167 531.833,387.333 535,385.5C 545.977,429.41 556.644,473.41 567,517.5C 567.637,519.303 568.803,520.636 570.5,521.5C 574.619,519.941 578.619,518.107 582.5,516C 586.046,512.548 587.213,508.382 586,503.5C 576.627,459.636 567.127,415.803 557.5,372C 558.071,370.401 559.071,369.234 560.5,368.5 Z M 502.5,402.5 C 513.172,445.67 523.672,489.003 534,532.5C 535.708,534.543 537.708,536.21 540,537.5C 544.581,535.127 549.081,532.627 553.5,530C 554.701,529.097 555.535,527.931 556,526.5C 559.449,534.169 560.782,542.169 560,550.5C 555.884,578.859 551.884,607.193 548,635.5C 530.609,559.372 512.775,483.372 494.5,407.5C 497.231,405.808 499.898,404.142 502.5,402.5 Z M 467.5,418.5 C 468.649,418.791 469.316,419.624 469.5,421C 479.539,465.529 489.706,510.029 500,554.5C 502.497,556.478 505.331,556.978 508.5,556C 512.252,553.707 516.086,551.54 520,549.5C 527.819,581.096 535.319,612.763 542.5,644.5C 531.234,646.6 519.9,648.267 508.5,649.5C 492.232,574.258 475.565,499.092 458.5,424C 461.455,422.073 464.455,420.24 467.5,418.5 Z M 450.5,426.5 C 451.117,426.611 451.617,426.944 452,427.5C 468.187,501.581 484.687,575.581 501.5,649.5C 500.975,650.192 500.308,650.692 499.5,651C 487.197,652.553 474.864,653.72 462.5,654.5C 451.288,582.936 439.621,511.436 427.5,440C 427.585,438.893 427.919,437.893 428.5,437C 436.046,433.725 443.379,430.225 450.5,426.5 Z M 797.5,438.5 C 798.795,442.346 798.295,446.013 796,449.5C 783.706,476.099 769.373,501.433 753,525.5C 749.657,529.673 746.157,533.673 742.5,537.5C 737.867,525.773 734.367,513.773 732,501.5C 757.61,484.39 779.443,463.39 797.5,438.5 Z M 208.5,439.5 C 210.818,450.712 213.151,462.045 215.5,473.5C 190.028,485.797 175.695,505.964 172.5,534C 173.662,550.155 179.162,564.655 189,577.5C 194.352,584.76 201.518,588.093 210.5,587.5C 206.792,579.409 203.625,571.076 201,562.5C 198.187,542.457 205.687,527.791 223.5,518.5C 224.806,519.912 225.64,521.579 226,523.5C 227.931,532.391 230.098,541.225 232.5,550C 223.083,567.917 217.083,586.917 214.5,607C 214.833,608.5 215.167,610 215.5,611.5C 222.076,596.018 228.909,580.685 236,565.5C 237.32,569.114 238.487,572.78 239.5,576.5C 232.315,588.538 226.481,601.204 222,614.5C 221.333,616.5 221.333,618.5 222,620.5C 223,621.833 224,621.833 225,620.5C 230.327,609.842 236.16,599.509 242.5,589.5C 248.186,609.791 252.853,630.291 256.5,651C 236.253,656.073 216.253,655.073 196.5,648C 178.069,638.902 165.235,624.736 158,605.5C 148.153,573.773 150.153,542.773 164,512.5C 176.677,486.7 191.51,462.366 208.5,439.5 Z M 418.5,441.5 C 420.045,442.23 420.878,443.563 421,445.5C 432.548,515.503 444.048,585.503 455.5,655.5C 441.791,656.004 428.124,657.004 414.5,658.5C 402.171,593.846 389.837,529.18 377.5,464.5C 379.647,462.161 382.147,460.161 385,458.5C 391.775,500.817 398.442,543.151 405,585.5C 406.033,588.033 407.867,589.699 410.5,590.5C 416.569,589.086 422.569,587.419 428.5,585.5C 429.415,584.672 430.081,583.672 430.5,582.5C 425.007,537.903 419.007,493.236 412.5,448.5C 412.833,447.167 413.167,445.833 413.5,444.5C 415.396,443.725 417.063,442.725 418.5,441.5 Z M 375.5,496.5 C 386.271,550.356 396.938,604.356 407.5,658.5C 392.546,660.326 377.713,662.66 363,665.5C 359.74,645.013 356.573,624.513 353.5,604C 361.493,576.513 359.66,549.68 348,523.5C 345.252,518.334 342.252,513.334 339,508.5C 337.881,502.28 336.714,496.114 335.5,490C 341.055,485.445 346.888,481.279 353,477.5C 359.884,520.136 366.551,562.803 373,605.5C 373.479,607.646 374.812,608.646 377,608.5C 381.57,605.797 386.07,602.964 390.5,600C 392.007,598.527 392.674,596.693 392.5,594.5C 386.572,561.862 380.905,529.195 375.5,496.5 Z M 372.5,480.5 C 374.246,485.572 375.246,490.905 375.5,496.5C 373.754,491.428 372.754,486.095 372.5,480.5 Z M 327.5,495.5 C 328.077,494.227 328.743,494.227 329.5,495.5C 329.03,496.463 328.363,496.463 327.5,495.5 Z M 722.5,506.5 C 723.75,506.577 724.583,507.244 725,508.5C 728.734,520.536 732.568,532.536 736.5,544.5C 732.722,549.78 728.389,554.614 723.5,559C 715.333,565.833 707.167,572.667 699,579.5C 698,576.167 697,572.833 696,569.5C 694.852,551.184 694.352,532.851 694.5,514.5C 704.547,513.991 713.88,511.325 722.5,506.5 Z M 236.5,514.5 C 241.844,514.334 247.177,514.501 252.5,515C 248.271,520.901 244.437,527.068 241,533.5C 239.029,527.281 237.529,520.948 236.5,514.5 Z M 265.5,517.5 C 270.536,518.851 275.202,521.018 279.5,524C 267.847,535.828 257.513,548.661 248.5,562.5C 247.086,558.34 245.753,554.173 244.5,550C 250.898,538.685 257.898,527.851 265.5,517.5 Z M 287.5,529.5 C 302.234,540.945 311.401,555.945 315,574.5C 319.027,611.448 303.527,636.114 268.5,648.5C 264.017,624.065 258.35,599.899 251.5,576C 253.922,571.244 256.756,566.744 260,562.5C 269.024,551.315 278.191,540.315 287.5,529.5 Z M 564.5,595.5 C 568.475,601.64 573.642,606.64 580,610.5C 582.069,618.206 584.236,625.873 586.5,633.5C 578.063,636.645 569.397,638.978 560.5,640.5C 562.031,625.519 563.365,610.519 564.5,595.5 Z M 346.5,615.5 C 347.222,615.918 347.722,616.584 348,617.5C 350.85,633.902 353.017,650.235 354.5,666.5C 325.525,671.987 298.692,682.654 274,698.5C 273.129,689.497 272.296,680.497 271.5,671.5C 305.123,664.189 330.123,645.523 346.5,615.5 Z M 589.5,615.5 C 598.339,617.39 606.672,620.557 614.5,625C 608.215,627.321 601.882,629.487 595.5,631.5C 594.353,631.182 593.519,630.516 593,629.5C 591.518,624.892 590.351,620.225 589.5,615.5 Z"/></g>
</svg>