<?xml version="1.0" standalone="no"?>
<!DOCTYPE svg PUBLIC "-//W3C//DTD SVG 20010904//EN"
 "http://www.w3.org/TR/2001/REC-SVG-20010904/DTD/svg10.dtd">
<svg version="1.0" xmlns="http://www.w3.org/2000/svg"
 width="2469.000000pt" height="1709.000000pt" viewBox="0 0 2469.000000 1709.000000"
 preserveAspectRatio="xMidYMid meet">

<g transform="translate(0.000000,1709.000000) scale(0.100000,-0.100000)"
fill="#000000" stroke="none">
<path d="M4554 16810 c-68 -13 -216 -65 -289 -103 -88 -46 -271 -233 -360
-367 -273 -413 -473 -847 -630 -1365 -177 -585 -268 -1105 -336 -1905 -16
-196 -21 -363 -26 -835 -7 -747 7 -1072 63 -1423 16 -98 16 -106 -1 -140 -51
-109 -200 -271 -294 -320 -187 -99 -570 -81 -1026 48 -329 92 -375 101 -665
125 -211 18 -454 19 -517 4 -98 -25 -209 -167 -238 -306 -19 -87 -19 -144 0
-290 46 -354 162 -771 332 -1193 226 -563 473 -943 854 -1315 155 -152 245
-226 397 -332 53 -36 99 -68 101 -69 2 -2 -44 -53 -102 -114 -308 -322 -512
-694 -629 -1149 -80 -313 -110 -567 -110 -921 0 -757 178 -1559 479 -2162 262
-523 572 -818 1015 -962 205 -67 362 -70 486 -7 71 36 82 48 125 141 31 68 50
91 203 241 199 196 255 247 406 364 l113 88 6 -129 c17 -337 102 -598 271
-827 97 -131 254 -248 413 -307 44 -17 107 -43 140 -59 126 -61 247 -61 373 0
85 41 165 124 296 307 59 83 141 187 182 231 142 153 335 289 589 417 83 42
159 84 170 94 11 10 42 24 68 30 27 6 65 17 84 25 50 21 56 19 49 -16 -3 -18
0 -45 10 -67 9 -20 27 -77 41 -127 26 -94 28 -106 38 -168 8 -52 61 -108 194
-206 201 -148 324 -224 441 -273 63 -27 162 -74 220 -105 559 -298 1054 -497
1572 -634 106 -28 274 -73 373 -101 831 -232 1457 -338 2226 -379 313 -16
1395 -7 1639 15 698 61 1257 164 1951 360 107 30 250 69 319 86 316 80 622
183 950 320 165 68 440 201 565 271 137 77 210 114 344 171 115 49 304 169
477 304 113 88 140 121 154 191 28 141 60 255 79 282 12 16 21 44 21 61 0 26
3 31 18 26 99 -33 151 -53 163 -62 8 -7 79 -44 159 -84 401 -200 594 -364 835
-710 109 -156 206 -244 308 -279 121 -42 211 -35 334 24 40 19 78 35 84 35 22
0 181 80 247 124 79 52 192 166 249 251 136 202 210 440 235 754 8 105 14 148
22 143 177 -132 323 -261 536 -473 120 -118 140 -144 180 -223 44 -87 47 -90
110 -123 141 -72 306 -67 540 19 222 81 397 193 565 362 414 415 730 1219 844
2141 88 711 26 1338 -185 1870 -127 320 -285 565 -518 803 -97 99 -109 115
-93 123 98 56 286 202 434 338 335 307 610 695 812 1143 244 540 420 1155 438
1528 9 196 -24 300 -130 408 -81 82 -114 92 -307 92 -148 0 -455 -21 -578 -40
-98 -15 -150 -27 -322 -76 -345 -97 -493 -123 -730 -131 -266 -8 -365 20 -493
137 -62 57 -137 151 -185 231 l-22 36 19 129 c54 352 73 793 65 1461 -5 489
-22 760 -75 1243 -122 1115 -427 2056 -897 2773 -188 287 -346 416 -597 489
-72 21 -99 23 -280 22 -211 -1 -329 -14 -601 -69 -192 -39 -521 -120 -674
-166 -525 -159 -1368 -551 -1903 -886 -393 -246 -710 -481 -1067 -793 -91 -80
-173 -151 -181 -158 -13 -10 -32 -4 -111 38 -286 150 -756 336 -1163 460 -301
91 -575 153 -815 184 -303 39 -355 41 -1085 41 -627 0 -741 -2 -880 -18 -448
-50 -712 -110 -1195 -269 -364 -120 -638 -231 -922 -374 l-149 -74 -209 181
c-604 524 -1179 900 -1905 1243 -395 186 -758 333 -1035 419 -253 78 -687 178
-945 217 -156 24 -468 35 -551 20z m509 -1251 c156 -31 421 -98 562 -141 328
-100 898 -370 1335 -631 338 -202 796 -540 1074 -793 169 -154 347 -305 417
-354 35 -25 90 -70 124 -101 130 -122 227 -161 400 -161 167 0 272 26 800 199
485 158 644 207 920 283 514 142 725 171 1425 200 326 14 958 -15 1238 -55
323 -47 779 -170 1497 -404 626 -204 702 -223 870 -224 161 0 273 42 380 142
33 32 92 79 130 106 74 52 227 181 385 325 333 303 746 610 1125 837 406 244
952 505 1289 617 142 47 552 149 686 170 122 20 101 32 187 -113 150 -252 299
-625 412 -1027 155 -554 269 -1315 341 -2289 23 -310 62 -760 96 -1115 11
-110 18 -284 19 -470 2 -268 4 -303 24 -380 100 -388 319 -694 649 -908 161
-104 373 -182 612 -224 101 -18 554 -18 670 0 83 13 299 58 326 69 26 10 14
-15 -63 -123 -178 -253 -382 -483 -596 -671 -279 -247 -486 -386 -887 -593
-124 -64 -306 -166 -405 -227 -99 -60 -235 -142 -302 -181 -171 -101 -185
-123 -137 -220 70 -140 283 -282 564 -376 153 -51 267 -68 440 -65 81 1 152
-1 157 -4 6 -4 63 -84 126 -179 301 -449 410 -795 424 -1343 6 -224 -6 -395
-43 -655 -35 -242 -110 -565 -189 -810 -56 -171 -176 -479 -200 -507 -1 -2
-71 66 -156 151 -165 164 -283 262 -449 373 -317 212 -625 346 -900 393 -381
65 -875 -18 -1051 -177 -105 -95 -92 -187 50 -351 63 -73 69 -84 80 -147 7
-38 33 -123 58 -190 65 -169 83 -243 90 -375 l6 -115 -35 30 c-20 17 -71 59
-113 94 -243 202 -606 385 -926 466 -57 15 -134 38 -172 51 -138 49 -248 65
-472 71 -161 4 -232 1 -303 -10 -80 -14 -102 -14 -158 -2 -91 19 -200 2 -327
-51 -31 -13 -189 -97 -350 -187 -387 -215 -612 -314 -992 -437 -599 -195
-1388 -364 -1975 -424 -263 -27 -1222 -76 -1496 -76 -202 0 -1181 46 -1404 66
-516 46 -1304 201 -1850 364 -515 154 -787 268 -1213 507 -281 158 -347 190
-442 218 -98 29 -209 36 -259 16 -23 -9 -50 -8 -128 5 -78 13 -141 15 -301 11
-226 -5 -324 -20 -487 -72 -58 -19 -150 -46 -205 -61 -356 -96 -739 -307 -987
-543 l-48 -45 0 59 c0 97 27 250 61 343 17 48 44 124 61 169 16 46 32 106 35
135 5 46 12 60 58 108 108 115 154 213 133 287 -37 135 -334 253 -708 282
-427 32 -810 -88 -1295 -405 -165 -107 -303 -222 -469 -387 -82 -81 -150 -147
-151 -145 -2 2 -17 37 -35 78 -255 601 -395 1251 -394 1830 1 573 117 954 431
1419 l118 174 152 -2 c225 -3 375 27 599 122 304 128 511 357 408 452 -15 14
-70 50 -123 81 -139 82 -323 192 -426 255 -49 31 -182 103 -295 161 -218 112
-329 176 -505 294 -299 199 -613 495 -850 799 -85 109 -208 286 -203 291 2 1
48 -8 103 -22 205 -49 301 -59 590 -59 254 1 277 2 396 28 329 70 568 195 784
412 198 197 340 450 400 710 24 100 34 294 23 410 -10 105 -9 116 62 905 17
179 37 420 45 535 54 744 136 1434 220 1843 143 702 317 1203 558 1610 l61
104 46 -7 c25 -3 89 -15 143 -26z"/>
<path d="M7145 11130 c-224 -59 -387 -194 -495 -410 -18 -35 -54 -96 -81 -136
-109 -160 -152 -327 -129 -510 27 -222 61 -318 161 -465 123 -180 206 -251
396 -341 140 -66 230 -88 358 -88 128 0 218 22 358 88 193 91 276 163 400 347
107 161 163 329 174 526 10 176 -48 413 -132 545 -88 138 -223 279 -329 343
-172 103 -493 151 -681 101z"/>
<path d="M17145 11126 c-217 -46 -337 -117 -478 -284 -139 -164 -178 -239
-225 -437 -38 -161 -36 -307 6 -469 38 -143 71 -217 154 -339 75 -111 172
-210 255 -260 90 -55 248 -122 330 -141 99 -22 241 -21 339 4 104 26 323 135
395 197 97 83 203 225 265 356 72 155 102 447 60 597 -21 76 -74 186 -121 250
-18 25 -47 74 -65 110 -110 219 -286 365 -504 420 -110 28 -266 26 -411 -4z"/>
<path d="M11850 10240 c-52 -4 -115 -13 -140 -20 -136 -37 -262 -142 -323
-270 -43 -90 -57 -162 -57 -288 0 -110 29 -213 86 -298 41 -62 184 -201 307
-298 48 -38 87 -72 87 -75 0 -3 -24 -19 -53 -35 -28 -16 -126 -80 -217 -141
-183 -124 -265 -167 -361 -190 -82 -19 -272 -19 -364 0 -96 20 -222 84 -279
142 -54 54 -178 292 -247 473 -38 100 -51 123 -99 172 -41 41 -67 59 -100 68
-101 27 -205 -13 -311 -119 -76 -77 -117 -145 -154 -254 -54 -161 -54 -329 -1
-538 76 -302 293 -563 597 -719 179 -92 309 -132 509 -155 430 -51 811 44
1190 297 124 83 283 217 374 315 l57 62 82 -86 c96 -100 245 -223 372 -306
108 -70 321 -176 425 -211 272 -91 621 -109 900 -47 453 101 820 414 935 796
40 136 49 195 50 335 0 152 -14 219 -69 336 -47 100 -100 167 -176 225 -105
80 -195 97 -285 55 -86 -40 -116 -83 -195 -286 -68 -172 -168 -357 -225 -415
-100 -103 -258 -155 -469 -155 -192 0 -280 34 -543 212 -92 62 -189 124 -216
138 -26 14 -46 28 -45 31 2 4 37 34 78 67 290 234 379 352 402 538 9 74 9 105
-5 188 -24 136 -62 213 -151 302 -121 120 -232 157 -471 154 -389 -4 -667 -3
-730 2 -38 3 -113 2 -165 -2z"/>
</g>
</svg>
