<?xml version="1.0" standalone="no"?>
<!DOCTYPE svg PUBLIC "-//W3C//DTD SVG 20010904//EN"
 "http://www.w3.org/TR/2001/REC-SVG-20010904/DTD/svg10.dtd">
<svg version="1.0" xmlns="http://www.w3.org/2000/svg"
 width="1522.000000pt" height="1320.000000pt" viewBox="0 0 1522.000000 1320.000000"
 preserveAspectRatio="xMidYMid meet">

<g transform="translate(0.000000,1320.000000) scale(0.100000,-0.100000)"
fill="#000000" stroke="none">
<path d="M4433 13120 c-94 -19 -169 -75 -207 -153 -16 -33 -35 -108 -51 -202
-27 -154 -98 -510 -180 -900 -25 -121 -64 -319 -87 -440 -48 -255 -48 -272
-27 -864 l12 -354 62 184 c34 101 92 258 129 349 38 91 90 228 116 305 27 77
71 196 98 265 49 123 175 565 284 998 29 117 57 212 61 212 5 0 79 -39 165
-87 145 -80 272 -155 922 -548 206 -125 457 -267 686 -389 l70 -38 95 35 c196
73 453 98 1024 98 628 0 853 -25 1101 -122 30 -12 40 -8 275 121 215 117 592
340 924 544 226 140 672 392 680 384 2 -2 29 -105 60 -228 106 -423 234 -875
281 -990 26 -63 72 -189 104 -280 32 -91 84 -228 116 -305 31 -77 85 -223 119
-324 l62 -185 7 185 c3 101 11 308 17 460 l10 277 -30 183 c-28 170 -51 289
-191 974 -28 138 -66 335 -85 438 -48 260 -73 309 -187 366 -77 39 -166 42
-261 10 -139 -46 -514 -241 -962 -497 -553 -317 -615 -352 -825 -462 -118 -62
-241 -126 -272 -143 l-56 -31 -99 46 c-168 79 -291 113 -528 148 -177 25 -323
25 -504 0 -237 -33 -364 -68 -534 -148 -79 -37 -102 -44 -116 -35 -10 6 -123
66 -252 134 -256 134 -325 172 -754 419 -338 195 -539 306 -755 417 -300 155
-415 193 -517 173z"/>
<path d="M5643 10371 c-107 -40 -200 -125 -228 -212 -12 -34 -17 -91 -18 -196
l-2 -148 32 -61 c81 -154 245 -219 421 -165 150 45 254 163 283 322 30 164
-65 364 -213 444 -70 39 -195 46 -275 16z"/>
<path d="M9362 10379 c-177 -54 -306 -275 -272 -468 24 -137 102 -241 227
-303 63 -31 74 -33 168 -33 123 0 181 23 250 96 80 85 90 120 88 293 -3 189
-15 230 -92 307 -78 78 -153 112 -256 115 -44 2 -95 -1 -113 -7z"/>
<path d="M3512 10305 c-259 -89 -621 -370 -870 -677 -287 -353 -426 -706 -409
-1033 7 -124 28 -203 89 -335 36 -79 117 -214 124 -208 1 2 9 35 18 74 16 78
52 158 98 217 42 53 152 129 180 125 21 -3 23 -7 20 -63 -7 -128 34 -328 97
-475 73 -170 148 -262 297 -366 111 -77 207 -124 255 -124 53 0 63 17 49 86
-25 120 -46 162 -121 242 -123 132 -203 271 -264 457 -40 120 -56 230 -57 375
-1 88 3 117 25 177 13 40 41 95 61 123 l36 50 -27 7 c-79 19 -244 -34 -346
-112 -25 -19 -48 -35 -51 -35 -9 0 37 117 74 189 178 354 527 740 895 990 134
92 165 127 165 188 0 135 -151 191 -338 128z"/>
<path d="M11465 10311 c-62 -28 -95 -73 -95 -129 0 -29 7 -58 18 -75 10 -15
79 -71 153 -123 373 -267 624 -535 835 -890 48 -82 109 -210 128 -272 7 -19
-1 -17 -56 22 -120 83 -162 99 -270 104 -98 4 -115 -1 -82 -28 25 -22 65 -97
86 -163 38 -122 22 -357 -38 -535 -64 -192 -170 -369 -293 -487 -33 -31 -47
-56 -67 -120 -14 -44 -26 -100 -27 -124 -2 -40 1 -45 23 -51 52 -14 148 27
280 119 141 98 207 174 280 325 77 158 131 399 116 523 -5 44 -3 55 10 60 45
17 197 -114 244 -211 17 -33 37 -92 44 -129 8 -38 17 -71 19 -73 14 -15 144
229 181 339 71 213 33 528 -98 801 -202 422 -642 871 -1041 1062 -153 74 -269
92 -350 55z"/>
<path d="M7330 9987 c-43 -11 -55 -21 -75 -60 -33 -66 -13 -120 93 -250 33
-39 69 -81 81 -91 11 -11 21 -25 21 -31 0 -32 -185 -47 -258 -21 -22 8 -65 31
-96 52 -62 41 -105 47 -135 20 -46 -42 -25 -142 45 -213 121 -120 331 -151
535 -77 l69 25 69 -25 c158 -57 309 -54 438 9 84 41 137 97 157 165 35 118
-38 169 -140 99 -96 -65 -208 -86 -320 -58 -51 13 -55 26 -18 60 42 39 143
168 164 210 24 47 25 81 3 130 -11 26 -27 42 -47 50 -38 15 -535 20 -586 6z"/>
<path d="M3927 8246 c-164 -68 -315 -261 -390 -501 -46 -148 -59 -232 -63
-410 l-4 -170 -877 0 -878 0 -41 -22 c-23 -12 -54 -36 -68 -54 -23 -27 -498
-817 -1364 -2266 -184 -310 -198 -354 -139 -468 l21 -40 1 -2095 c1 -1152 5
-2110 9 -2128 l8 -32 226 2 226 3 7 25 c4 14 7 934 8 2044 l1 2019 3978 -6
c2187 -4 5342 -7 7010 -7 l3034 0 -4 -2012 c-1 -1107 0 -2025 5 -2041 l7 -27
228 2 227 3 6 30 c4 17 7 969 8 2117 l1 2086 25 54 c28 60 33 139 12 198 -7
19 -83 152 -168 295 -86 143 -337 564 -559 935 -222 371 -485 813 -586 981
-183 306 -228 365 -292 390 -18 7 -317 10 -913 9 l-887 -1 6 89 c6 114 -13
302 -43 417 -51 195 -129 340 -244 456 -159 160 -323 193 -398 80 -34 -50 -30
-96 13 -167 81 -132 95 -158 118 -212 63 -153 89 -289 88 -472 -2 -217 -30
-348 -111 -505 -141 -277 -492 -426 -869 -371 -375 56 -675 234 -826 493 -95
161 -122 278 -111 468 13 204 2 308 -39 370 -83 127 -324 30 -400 -160 -38
-96 -49 -181 -44 -342 l5 -143 -1277 0 -1278 0 5 143 c11 285 -54 444 -217
532 -69 37 -145 40 -187 9 -72 -54 -98 -173 -81 -365 23 -252 -35 -439 -193
-629 -173 -208 -489 -355 -829 -385 -82 -7 -219 6 -315 30 -84 21 -249 105
-319 162 -228 185 -323 618 -221 1017 28 112 73 214 146 327 48 74 54 90 54
136 0 41 -5 57 -25 78 -57 61 -126 70 -223 31z m-301 -1618 c109 -243 385
-469 699 -571 157 -51 235 -62 445 -62 164 0 213 4 310 23 247 50 508 158 684
283 106 75 241 207 311 302 l49 67 1485 0 1486 -1 45 -62 c315 -435 979 -694
1547 -602 402 65 771 318 907 623 l19 42 856 0 856 -1 222 -372 c122 -204 383
-642 580 -972 197 -330 371 -622 386 -648 l28 -48 -6920 3 c-5322 2 -6920 6
-6917 15 4 8 1007 1690 1188 1991 l20 32 847 0 848 0 19 -42z"/>
<path d="M14504 129 c-3 -6 2 -19 12 -30 16 -18 18 -18 36 -2 10 9 17 21 15
27 -5 14 -55 18 -63 5z m56 -8 c0 -18 -24 -30 -37 -20 -20 17 -16 27 12 27 14
0 25 -4 25 -7z"/>
</g>
</svg>
